<?xml version="1.0" encoding="UTF-8" standalone="no"?>
<!-- Created with Inkscape (http://www.inkscape.org/) -->

<svg
   xmlns:dc="http://purl.org/dc/elements/1.1/"
   xmlns:cc="http://creativecommons.org/ns#"
   xmlns:rdf="http://www.w3.org/1999/02/22-rdf-syntax-ns#"
   xmlns:svg="http://www.w3.org/2000/svg"
   xmlns="http://www.w3.org/2000/svg"
   xmlns:sodipodi="http://sodipodi.sourceforge.net/DTD/sodipodi-0.dtd"
   xmlns:inkscape="http://www.inkscape.org/namespaces/inkscape"
   width="24in"
   height="12in"
   viewBox="0 0 609.59998 304.80001"
   version="1.1"
   id="svg8"
   inkscape:version="0.92.1 r15371"
   sodipodi:docname="BOX.svg">
  <defs
     id="defs2" />
  <sodipodi:namedview
     id="base"
     pagecolor="#ffffff"
     bordercolor="#666666"
     borderopacity="1.0"
     inkscape:pageopacity="0.0"
     inkscape:pageshadow="2"
     inkscape:zoom="0.38448932"
     inkscape:cx="921.40333"
     inkscape:cy="693.97953"
     inkscape:document-units="in"
     inkscape:current-layer="layer1"
     showgrid="true"
     showguides="true"
     inkscape:guide-bbox="true"
     units="in"
     inkscape:snap-global="true"
     inkscape:snap-bbox="true"
     inkscape:bbox-nodes="true"
     inkscape:window-width="1366"
     inkscape:window-height="705"
     inkscape:window-x="-8"
     inkscape:window-y="-8"
     inkscape:window-maximized="1">
    <inkscape:grid
       type="xygrid"
       id="grid4487"
       units="in"
       spacingx="6.35"
       spacingy="6.35"
       empspacing="4" />
  </sodipodi:namedview>
  <metadata
     id="metadata5">
    <rdf:RDF>
      <cc:Work
         rdf:about="">
        <dc:format>image/svg+xml</dc:format>
        <dc:type
           rdf:resource="http://purl.org/dc/dcmitype/StillImage" />
        <dc:title></dc:title>
      </cc:Work>
    </rdf:RDF>
  </metadata>
  <g
     inkscape:label="Layer 1"
     inkscape:groupmode="layer"
     id="layer1"
     transform="translate(0,7.8000168)">
    <rect
       style="fill:none;fill-opacity:1;stroke:#ff0000;stroke-width:0.00072457;stroke-miterlimit:4;stroke-dasharray:none;stroke-opacity:1"
       id="rect4489"
       height="76.199272"
       x="127.00072"
       y="17.599983"
       width="88.899277" />
    <path
       id="path4525"
       d="m 234.94948,36.650503 v 6.34948 H 228.6 v 6.35 h 6.34948 v 6.35 H 228.6 v 6.35 h 6.34948 v 6.35 H 228.6 v 6.35 h 6.34948 v 12.7 h 5.2e-4 6.35 v 6.35 h 6.35 v -6.35 h 12.7 v 6.35 h 6.35 v -6.35 h 12.7 v 6.35 h 6.35 v -6.35 h 12.7 v 6.35 h 6.35 v -6.35 h 6.34897 5.1e-4 v -12.7 h 6.35 v -6.35 h -6.35 v -6.35 h 6.35 v -6.35 h -6.35 v -6.35 h 6.35 v -6.35 h -6.35 v -6.34948 H 311.14897 234.95 Z"
       style="fill:none;fill-opacity:1;stroke:#ff0000;stroke-width:0.00054772;stroke-miterlimit:4;stroke-dasharray:none;stroke-opacity:1"
       inkscape:connector-curvature="0" />
    <path
       style="fill:none;fill-opacity:1;stroke:#ff0000;stroke-width:0.001;stroke-miterlimit:4;stroke-dasharray:none;stroke-opacity:1"
       d="m 165.1,176.34998 h 5.2e-4 6.34948 v -6.35 h 6.35 v 6.35 h 6.35 v -6.35 h 6.35 v 6.35 h 6.35 v -6.35 h 6.35 v 6.35 h 12.7 v -6.35 h 6.35 v -6.35 h -6.35 v -12.7 h 6.35 v -6.35 h -6.35 v -12.7 h 6.35 v -6.35 h -6.35 v -12.7 h 6.35 v -6.35 h -6.35 v -6.35 h -12.7 v 6.35 h -6.35 v -6.35 h -6.35 v 6.35 h -6.35 v -6.35 h -6.35 v 6.35 h -6.35 v -6.35 H 165.10052 165.1 Z"
       id="rect4527"
       inkscape:connector-curvature="0" />
    <path
       id="path4566"
       d="m 228.60104,100.15065 v 6.34794 h 6.35 v 0.002 6.34794 0.002 h -6.35 v 12.69794 h 6.35 v 0.002 6.34794 0.002 h -6.35 v 12.69794 h 6.35 v 0.002 6.34794 0.002 h -6.35 v 12.69794 h 6.35 v 0.002 6.34794 0.002 h -6.35 v 6.34794 h 12.69897 v -6.34949 h 6.35 v 6.34949 h 12.7 v -6.34949 h 6.35 v 6.34949 H 279.4 v -6.34949 h 6.35 v 6.34949 h 12.7 v -6.34949 h 6.35 v 6.34949 h 12.7 v -6.34845 h -6.35 v -0.001 -6.34896 -0.001 h 6.35 v -12.69896 h -6.35 v -0.001 -6.34896 -0.001 h 6.35 v -12.69896 h -6.35 v -0.001 -6.34896 -10e-4 h 6.35 V 112.8499 h -6.35 v -0.001 -6.34896 -10e-4 h 6.35 v -6.34845 h -12.7 v 6.34949 h -6.35 v -6.34949 h -12.7 v 6.34949 h -6.35 v -6.34949 h -12.69999 v 6.34949 h -6.35 v -6.34949 h -12.7 v 6.34949 h -6.35 v -6.34949 z"
       style="fill:none;fill-opacity:1;stroke:#ff0000;stroke-width:0.00072457;stroke-miterlimit:4;stroke-dasharray:none;stroke-opacity:1"
       inkscape:connector-curvature="0" />
    <path
       inkscape:connector-curvature="0"
       style="fill:none;fill-opacity:1;stroke:#ff0000;stroke-width:0.00054772;stroke-miterlimit:4;stroke-dasharray:none;stroke-opacity:1"
       d="m 234.94948,239.84946 v -6.34948 H 228.6 v -6.35 h 6.34948 v -6.35 H 228.6 v -6.35 h 6.34948 v -6.35 H 228.6 v -6.35 h 6.34948 v -12.7 h 5.2e-4 6.35 v -6.35 h 6.35 v 6.35 h 12.7 v -6.35 h 6.35 v 6.35 h 12.7 v -6.35 h 6.35 v 6.35 h 12.7 v -6.35 h 6.35 v 6.35 h 6.34897 5.1e-4 v 12.7 h 6.35 v 6.35 h -6.35 v 6.35 h 6.35 v 6.35 h -6.35 v 6.35 h 6.35 v 6.35 h -6.35 v 6.34948 H 311.14897 234.95 Z"
       id="path4569" />
    <path
       inkscape:connector-curvature="0"
       id="path4594"
       d="m 381,176.34998 h -5.2e-4 -6.34948 v -6.35 h -6.35 v 6.35 h -6.35 v -6.35 h -6.35 v 6.35 h -6.35 v -6.35 h -6.35 v 6.35 h -12.7 v -6.35 h -6.35 v -6.35 h 6.35 v -12.7 h -6.35 v -6.35 h 6.35 v -12.7 h -6.35 v -6.35 h 6.35 v -12.7 h -6.35 v -6.35 h 6.35 v -6.35 h 12.7 v 6.35 h 6.35 v -6.35 h 6.35 v 6.35 h 6.35 v -6.35 h 6.35 v 6.35 h 6.35 v -6.35 H 380.99948 381 Z"
       style="fill:none;fill-opacity:1;stroke:#ff0000;stroke-width:0.001;stroke-miterlimit:4;stroke-dasharray:none;stroke-opacity:1" />
    <rect
       width="76.199387"
       y="23.950289"
       x="336.55029"
       height="63.499386"
       id="rect4596"
       style="fill:none;fill-opacity:1;stroke:#ff0000;stroke-width:0.00061237;stroke-miterlimit:4;stroke-dasharray:none;stroke-opacity:1" />
  </g>
</svg>
